PathFileType	4	(X/Y/Z)	C:\Users\86182\Documents\cortex\Trimmed_M4_L11.trc
DataRate	CameraRate	NumFrames	NumMarkers	Units	OrigDataRate	OrigDataStartFrame	OrigNumFrames
100.00	100.00	       169	2	mm	100.00	181	       901
Frame#	Time	gripper			box			
		X1	Y1	Z1	X2	Y2	Z2	

181	1.800	276.04318	149.28482	218.34862	278.22351	146.93520	82.17007	
182	1.810	276.06155	149.27130	218.74799	278.15186	146.93457	82.60278	
183	1.820	276.11545	149.25203	219.14334	278.10809	146.93324	83.03226	
184	1.830	276.17731	149.23303	219.54643	278.08786	146.93263	83.46107	
185	1.840	276.21765	149.22195	219.96667	278.08417	146.93224	83.89015	
186	1.850	276.22806	149.22223	220.40547	278.08945	146.93213	84.31983	
187	1.860	276.21475	149.23300	220.85930	278.09793	146.93446	84.75163	
188	1.870	276.18353	149.25163	221.32394	278.10620	146.94218	85.18757	
189	1.880	276.14481	149.27411	221.79199	278.11206	146.95622	85.62752	
190	1.890	276.12216	149.29474	222.25029	278.11411	146.97440	86.06860	
191	1.900	276.13867	149.30878	222.68713	278.11191	146.99329	86.50755	
192	1.910	276.19540	149.31538	223.10193	278.10666	147.01007	86.94244	
193	1.920	276.27393	149.31635	223.50298	278.10013	147.02341	87.37215	
194	1.930	276.35928	149.31209	223.89639	278.09183	147.03371	87.79663	
195	1.940	276.44836	149.30211	224.28275	278.07892	147.04262	88.21780	
196	1.950	276.53430	149.28908	224.66537	278.05878	147.05151	88.63733	
197	1.960	276.59857	149.27899	225.05388	278.03125	147.06052	89.05446	
198	1.970	276.62750	149.27571	225.45567	277.99905	147.06866	89.46862	
199	1.980	276.62741	149.27815	225.86961	277.96671	147.07491	89.88297	
200	1.990	276.61600	149.28339	226.29071	277.93851	147.07951	90.30306	
201	2.000	276.60104	149.29114	226.71802	277.91675	147.08534	90.73233	
202	2.010	276.57550	149.30359	227.15495	277.90091	147.09581	91.16965	
203	2.020	276.53668	149.32103	227.60223	277.88855	147.11172	91.61166	
204	2.030	276.49435	149.34106	228.05510	277.87784	147.13158	92.05609	
205	2.040	276.45160	149.36348	228.51018	277.86865	147.15375	92.50214	
206	2.050	276.39502	149.39194	228.96973	277.86044	147.17676	92.94846	
207	2.060	276.31485	149.42853	229.43544	277.85007	147.19861	93.39186	
208	2.070	276.22244	149.46910	229.90170	277.83359	147.21733	93.82838	
209	2.080	276.13495	149.50705	230.36111	277.80939	147.23141	94.25600	
210	2.090	276.04770	149.54106	230.81540	277.77887	147.23911	94.67606	
211	2.100	275.93484	149.57619	231.27518	277.74460	147.23863	95.09209	
212	2.110	275.77869	149.61758	231.74738	277.70792	147.23071	95.50723	
213	2.120	275.59091	149.66444	232.22716	277.66779	147.21869	95.92243	
214	2.130	275.40494	149.71095	232.70314	277.62161	147.20528	96.33697	
215	2.140	275.25485	149.75079	233.16589	277.56885	147.19046	96.75029	
216	2.150	275.16373	149.77971	233.60986	277.51416	147.17337	97.16291	
217	2.160	275.14346	149.79520	234.03194	277.46567	147.15479	97.57698	
218	2.170	275.19659	149.79642	234.43190	277.43030	147.13768	97.99625	
219	2.180	275.31674	149.78502	234.81314	277.41132	147.12563	98.42342	
220	2.190	275.48822	149.76530	235.18250	277.40942	147.12108	98.85722	
221	2.200	275.68658	149.74284	235.55013	277.42471	147.12476	99.29375	
222	2.210	275.88538	149.72237	235.92648	277.45667	147.13661	99.73139	
223	2.220	276.06097	149.70769	236.31937	277.50183	147.15620	100.17280	
224	2.230	276.19101	149.70309	236.73450	277.55280	147.18201	100.62128	
225	2.240	276.25928	149.71228	237.17432	277.60098	147.21083	101.07579	
226	2.250	276.26361	149.73540	237.63524	277.63998	147.23894	101.53078	
227	2.260	276.20883	149.77008	238.11139	277.66669	147.26393	101.98122	
228	2.270	276.09421	149.81462	238.60121	277.67981	147.28426	102.42628	
229	2.280	275.92041	149.86797	239.10420	277.67847	147.29781	102.86719	
230	2.290	275.70673	149.92671	239.61252	277.66226	147.30266	103.30331	
231	2.300	275.48871	149.98427	240.11256	277.63129	147.29880	103.73193	
232	2.310	275.29736	150.03329	240.59430	277.58661	147.28796	104.15182	
233	2.320	275.14673	150.06889	241.05557	277.53137	147.27287	104.56570	
234	2.330	275.03732	150.09019	241.50020	277.47211	147.25642	104.97852	
235	2.340	274.96234	150.09894	241.93507	277.41803	147.24081	105.39374	
236	2.350	274.91132	150.09677	242.36702	277.37631	147.22713	105.81136	
237	2.360	274.87521	150.08414	242.79932	277.34851	147.21529	106.22945	
238	2.370	274.85190	150.06142	243.23190	277.33218	147.20496	106.64696	
239	2.380	274.84546	150.03062	243.66425	277.32538	147.19676	107.06569	
240	2.390	274.86063	149.99568	244.09576	277.32855	147.19165	107.48949	
241	2.400	274.90012	149.96021	244.52403	277.34262	147.18933	107.92139	
242	2.410	274.96573	149.92516	244.94533	277.36578	147.18832	108.36086	
243	2.420	275.05722	149.88971	245.35727	277.39325	147.18745	108.80411	
244	2.430	275.16580	149.85432	245.76132	277.41980	147.18675	109.24729	
245	2.440	275.26727	149.82288	246.16470	277.44183	147.18675	109.68851	
246	2.450	275.32538	149.80162	246.57921	277.45786	147.18765	110.12691	
247	2.460	275.31213	149.79456	247.01273	277.46689	147.18874	110.56088	
248	2.470	275.23032	149.79942	247.46176	277.46729	147.18880	110.98767	
249	2.480	275.11041	149.81012	247.91606	277.45752	147.18739	111.40469	
250	2.490	274.98657	149.82243	248.36700	277.43839	147.18590	111.81180	
251	2.500	274.87946	149.83530	248.80959	277.41422	147.18629	112.21223	
252	2.510	274.79514	149.84801	249.24077	277.39066	147.18866	112.61084	
253	2.520	274.73236	149.85899	249.66017	277.37067	147.19086	113.01099	
254	2.530	274.68903	149.86710	250.07091	277.35355	147.19112	113.41283	
255	2.540	274.66415	149.87242	250.47827	277.33768	147.18990	113.81590	
256	2.550	274.65570	149.87587	250.88724	277.32300	147.18936	114.22266	
257	2.560	274.65894	149.87883	251.30084	277.31073	147.19159	114.63737	
258	2.570	274.66739	149.88242	251.71999	277.30234	147.19731	115.06207	
259	2.580	274.67609	149.88684	252.14484	277.29874	147.20581	115.49524	
260	2.590	274.68408	149.89157	252.57587	277.29910	147.21577	115.93385	
261	2.600	274.69312	149.89610	253.01329	277.30032	147.22672	116.37541	
262	2.610	274.70352	149.90030	253.45538	277.29929	147.23914	116.81867	
263	2.620	274.71304	149.90433	253.89838	277.29532	147.25359	117.26308	
264	2.630	274.72006	149.90843	254.33896	277.29050	147.27005	117.70744	
265	2.640	274.72552	149.91296	254.77640	277.28650	147.28865	118.14911	
266	2.650	274.73151	149.91869	255.21182	277.28128	147.30981	118.58572	
267	2.660	274.73877	149.92665	255.64587	277.27066	147.33336	119.01775	
268	2.670	274.74625	149.93715	256.07751	277.25366	147.35844	119.44736	
269	2.680	274.75238	149.94951	256.50531	277.23383	147.38412	119.87532	
270	2.690	274.75659	149.96297	256.92896	277.21490	147.40910	120.30060	
271	2.700	274.75919	149.97664	257.35010	277.19714	147.43181	120.72226	
272	2.710	274.76114	149.98897	257.77029	277.17868	147.45134	121.14017	
273	2.720	274.76337	149.99867	258.18945	277.15924	147.46828	121.55473	
274	2.730	274.76575	150.00623	258.60706	277.14075	147.48363	121.96788	
275	2.740	274.76779	150.01332	259.02396	277.12592	147.49751	122.38377	
276	2.750	274.77133	150.02103	259.44214	277.11670	147.50960	122.80623	
277	2.760	274.78021	150.02890	259.86261	277.11414	147.51962	123.23497	
278	2.770	274.79623	150.03577	260.28540	277.11792	147.52786	123.66670	
279	2.780	274.81683	150.04129	260.71072	277.12643	147.53593	124.09993	
280	2.790	274.83716	150.04671	261.13971	277.13712	147.54651	124.53587	
281	2.800	274.85422	150.05341	261.57361	277.14722	147.56107	124.97502	
282	2.810	274.86801	150.06114	262.01202	277.15503	147.57813	125.41528	
283	2.820	274.87933	150.06862	262.45255	277.16104	147.59464	125.85399	
284	2.830	274.88742	150.07553	262.89249	277.16672	147.60912	126.29005	
285	2.840	274.89066	150.08304	263.33096	277.17142	147.62248	126.72380	
286	2.850	274.88876	150.09259	263.76782	277.17172	147.63602	127.15585	
287	2.860	274.88318	150.10474	264.20233	277.16470	147.64954	127.58595	
288	2.870	274.87595	150.11835	264.63297	277.14944	147.66145	128.01277	
289	2.880	274.86798	150.13116	265.05835	277.12561	147.66975	128.43541	
290	2.890	274.85880	150.14192	265.47797	277.09262	147.67271	128.85466	
291	2.900	274.84708	150.15100	265.89313	277.05133	147.66943	129.27231	
292	2.910	274.83212	150.15874	266.30634	277.00473	147.66078	129.68947	
293	2.920	274.81464	150.16388	266.71936	276.95670	147.64905	130.10590	
294	2.930	274.79602	150.16417	267.13199	276.90952	147.63631	130.52167	
295	2.940	274.77707	150.15802	267.54431	276.86407	147.62344	130.93857	
296	2.950	274.75769	150.14493	267.95825	276.82245	147.61012	131.35907	
297	2.960	274.73779	150.12540	268.37628	276.78937	147.59555	131.78419	
298	2.970	274.71893	150.10147	268.79929	276.76852	147.57996	132.21329	
299	2.980	274.70422	150.07655	269.22714	276.75870	147.56543	132.64510	
300	2.990	274.69574	150.05409	269.65958	276.75439	147.55444	133.07893	
301	3.000	274.69345	150.03650	270.09589	276.75165	147.54756	133.51483	
302	3.010	274.69650	150.02495	270.53513	276.75101	147.54301	133.95270	
303	3.020	274.70328	150.01970	270.97675	276.75461	147.53873	134.39243	
304	3.030	274.71008	150.02049	271.41971	276.76065	147.53479	134.83424	
305	3.040	274.71216	150.02667	271.86264	276.76343	147.53362	135.27831	
306	3.050	274.70602	150.03749	272.30548	276.75916	147.53716	135.72395	
307	3.060	274.69046	150.05255	272.74878	276.74918	147.54494	136.17001	
308	3.070	274.66534	150.07173	273.19241	276.73581	147.55516	136.61588	
309	3.080	274.63135	150.09465	273.63574	276.71866	147.56686	137.06175	
310	3.090	274.59024	150.12085	274.07758	276.69604	147.58034	137.50723	
311	3.100	274.54453	150.14909	274.51578	276.66800	147.59550	137.94955	
312	3.110	274.49652	150.17667	274.94940	276.63654	147.61067	138.38486	
313	3.120	274.44836	150.20090	275.37997	276.60413	147.62355	138.81168	
314	3.130	274.40186	150.22049	275.80966	276.57297	147.63333	139.23247	
315	3.140	274.35721	150.23502	276.23853	276.54504	147.64082	139.65094	
316	3.150	274.31375	150.24437	276.66528	276.52158	147.64697	140.06796	
317	3.160	274.27338	150.24916	277.08893	276.50323	147.65213	140.48161	
318	3.170	274.24115	150.25105	277.50980	276.49072	147.65601	140.89108	
319	3.180	274.22174	150.25171	277.92926	276.48410	147.65787	141.29915	
320	3.190	274.21729	150.25151	278.34918	276.48312	147.65733	141.70963	
321	3.200	274.22736	150.24974	278.77094	276.48859	147.65504	142.12390	
322	3.210	274.24933	150.24576	279.19513	276.50201	147.65182	142.54131	
323	3.220	274.27881	150.24001	279.62149	276.52222	147.64760	142.96114	
324	3.230	274.31195	150.23358	280.04956	276.54575	147.64180	143.38283	
325	3.240	274.34637	150.22733	280.47845	276.57068	147.63516	143.80637	
326	3.250	274.38043	150.22137	280.90720	276.59766	147.62952	144.23282	
327	3.260	274.41278	150.21606	281.33572	276.62543	147.62607	144.66275	
328	3.270	274.44183	150.21237	281.76425	276.64865	147.62489	145.09399	
329	3.280	274.46585	150.21152	282.19223	276.66238	147.62543	145.52332	
330	3.290	274.48392	150.21385	282.61810	276.66620	147.62662	145.94968	
331	3.300	274.49561	150.21883	283.04050	276.66180	147.62761	146.37407	
332	3.310	274.50031	150.22601	283.45908	276.64972	147.62880	146.79662	
333	3.320	274.49771	150.23564	283.87448	276.63065	147.63112	147.21622	
334	3.330	274.48828	150.24786	284.28787	276.60800	147.63483	147.63130	
335	3.340	274.47308	150.26193	284.70001	276.58701	147.63986	148.04063	
336	3.350	274.45450	150.27625	285.11090	276.57108	147.64645	148.44499	
337	3.360	274.43671	150.28876	285.52069	276.55963	147.65466	148.84821	
338	3.370	274.42349	150.29819	285.93085	276.55051	147.66389	149.25398	
339	3.380	274.41626	150.30513	286.34305	276.54385	147.67294	149.66136	
340	3.390	274.41492	150.31111	286.75708	276.54153	147.67981	150.06554	
341	3.400	274.41965	150.31673	287.17017	276.54361	147.68262	150.46416	
342	3.410	274.43066	150.32138	287.57837	276.54810	147.68166	150.86032	
343	3.420	274.44754	150.32437	287.97900	276.55380	147.67989	151.25769	
344	3.430	274.46860	150.32603	288.37155	276.56107	147.68004	151.65451	
345	3.440	274.49078	150.32774	288.75610	276.57062	147.68146	152.04414	
346	3.450	274.51144	150.33058	289.12988	276.58334	147.68147	152.42007	
347	3.460	274.52994	150.33440	289.48798	276.59967	147.67964	152.77939	
348	3.470	274.54788	150.33783	289.82697	276.61884	147.67831	153.12282	
349	3.480	274.56787	150.33937	290.14761	276.63919	147.67976	153.45264	
